<svg xmlns="http://www.w3.org/2000/svg" width="32" height="32" viewBox="0 0 8.467 8.467" id="trash"><g opacity=".98" color="#000" font-family="sans-serif" font-weight="400"><path fill="#0088d1" fill-opacity=".98" d="M53.71 1.852c-.065 0-.12-.002-.183.005a.384.384 0 0 0-.236.106.38.38 0 0 0-.104.236c-.007.063-.005.116-.005.182a.265.265 0 0 0 .002.03l.529 4.763-.002-.03c0 .221.101.41.242.551.141.14.33.242.55.242h2.648a.78.78 0 0 0 .55-.242c.141-.14.242-.33.242-.55l-.002.029.53-4.764a.265.265 0 0 0 .001-.03c0-.065.002-.118-.005-.18a.38.38 0 0 0-.104-.237.387.387 0 0 0-.238-.106c-.063-.007-.116-.005-.182-.005z" overflow="visible" paint-order="markers fill stroke" style="font-variant-ligatures:normal;font-variant-position:normal;font-variant-numeric:normal;font-variant-alternates:normal;font-feature-settings:normal;text-indent:0;text-align:start;text-transform:none;text-orientation:mixed;shape-padding:0;isolation:auto;mix-blend-mode:normal;font-variant-caps:normal;line-height:normal;text-decoration-line:none;text-decoration-style:solid;text-decoration-color:#000" transform="translate(-51.594)"/><path fill="#0088d1" fill-opacity=".98" d="M54.504.53a.277.277 0 0 0 .027.552h2.592a.276.276 0 1 0 0-.553h-2.592a.276.276 0 0 0-.027 0z" overflow="visible" style="font-variant-ligatures:normal;font-variant-position:normal;font-variant-numeric:normal;font-variant-alternates:normal;font-feature-settings:normal;text-indent:0;text-align:start;text-transform:none;text-orientation:mixed;shape-padding:0;isolation:auto;mix-blend-mode:normal;font-variant-caps:normal;line-height:normal;text-decoration-line:none;text-decoration-style:solid;text-decoration-color:#000" transform="translate(-51.594)"/><path fill="#0178be" style="font-variant-ligatures:normal;font-variant-position:normal;font-variant-numeric:normal;font-variant-alternates:normal;font-feature-settings:normal;text-indent:0;text-align:start;text-transform:none;text-orientation:mixed;shape-padding:0;isolation:auto;mix-blend-mode:normal;font-variant-caps:normal;line-height:normal;text-decoration-line:none;text-decoration-style:solid;text-decoration-color:#000" d="M55.827 1.852v6.085h1.324a.78.78 0 0 0 .55-.242c.141-.14.242-.33.242-.55l-.002.029.53-4.764a.265.265 0 0 0 .001-.03c0-.065.002-.118-.005-.18a.38.38 0 0 0-.104-.237.387.387 0 0 0-.238-.106c-.063-.007-.116-.005-.182-.005z" overflow="visible" paint-order="markers fill stroke" transform="translate(-51.594)"/><path fill="#c8d4dd" d="M55.004 3.701a.265.265 0 0 0-.234.268V5.82a.265.265 0 1 0 .529 0V3.97a.265.265 0 0 0-.295-.268Z" overflow="visible" paint-order="markers fill stroke" style="font-variant-ligatures:normal;font-variant-position:normal;font-variant-numeric:normal;font-variant-alternates:normal;font-feature-settings:normal;text-indent:0;text-align:start;text-transform:none;text-orientation:mixed;shape-padding:0;isolation:auto;mix-blend-mode:normal;font-variant-caps:normal;line-height:normal;text-decoration-line:none;text-decoration-style:solid;text-decoration-color:#000" transform="translate(-51.594)"/><path fill="#aebdc0" d="M56.59 3.701a.265.265 0 0 0-.235.268V5.82a.265.265 0 1 0 .53 0V3.97a.265.265 0 0 0-.295-.268Z" overflow="visible" paint-order="markers fill stroke" style="font-variant-ligatures:normal;font-variant-position:normal;font-variant-numeric:normal;font-variant-alternates:normal;font-feature-settings:normal;text-indent:0;text-align:start;text-transform:none;text-orientation:mixed;shape-padding:0;isolation:auto;mix-blend-mode:normal;font-variant-caps:normal;line-height:normal;text-decoration-line:none;text-decoration-style:solid;text-decoration-color:#000" transform="translate(-51.594)"/><path fill="#0178be" style="font-variant-ligatures:normal;font-variant-position:normal;font-variant-numeric:normal;font-variant-alternates:normal;font-feature-settings:normal;text-indent:0;text-align:start;text-transform:none;text-orientation:mixed;shape-padding:0;isolation:auto;mix-blend-mode:normal;font-variant-caps:normal;line-height:normal;text-decoration-line:none;text-decoration-style:solid;text-decoration-color:#000" d="M55.827.53v.552h1.296a.276.276 0 1 0 0-.553z" overflow="visible" transform="translate(-51.594)"/></g></svg>